<svg width="118" height="50" viewBox="0 0 118 50" fill="none" xmlns="http://www.w3.org/2000/svg">
<path d="M3.1305 10.06C3.1285 10.06 3.1265 10.06 3.1245 10.06C3.9555 9.66802 4.7605 9.38801 5.2935 9.20201C7.0405 8.58501 7.89851 9.48603 7.89851 9.48603C7.89851 9.48603 20.4415 20.764 23.4795 23.057C26.0575 22.137 36.1065 18.562 47.4895 14.635C44.0525 11.653 40.4025 7.61202 43.7025 6.19802C47.2425 4.67902 58.7365 6.19202 65.7815 7.32602C65.7835 7.32502 65.7855 7.32502 65.7875 7.32402C66.6105 7.45602 67.3725 7.58402 68.0535 7.70102C76.0705 5.08402 82.7905 3.03803 85.6855 2.51203C89.1275 1.88703 92.1865 2.32301 94.7045 3.15001C94.7095 3.15201 94.7145 3.15302 94.7195 3.15502C95.0195 3.25402 95.3125 3.35801 95.5965 3.46701C95.6075 3.47101 95.6185 3.47601 95.6305 3.48001C95.7645 3.53101 95.8965 3.58403 96.0265 3.63703C96.0335 3.64003 96.0395 3.64202 96.0465 3.64502C96.3165 3.75502 96.5775 3.87003 96.8315 3.98603C96.8515 3.99503 96.8715 4.00402 96.8915 4.01302C97.1395 4.12802 97.3805 4.24502 97.6125 4.36402C97.6305 4.37302 97.6485 4.38202 97.6665 4.39202C97.7645 4.44202 97.8605 4.49303 97.9555 4.54403C97.9765 4.55503 97.9985 4.56702 98.0195 4.57802C98.2375 4.69502 98.4475 4.81402 98.6495 4.93102C98.6735 4.94502 98.6975 4.95903 98.7215 4.97303C98.8035 5.02103 98.8845 5.07002 98.9635 5.11802C98.9815 5.12902 99.0005 5.14002 99.0185 5.15102C99.1125 5.20902 99.2055 5.26602 99.2965 5.32302C99.3145 5.33402 99.3315 5.34601 99.3495 5.35701C99.4225 5.40301 99.4935 5.44901 99.5635 5.49501C99.5885 5.51101 99.6125 5.52702 99.6365 5.54302C99.7105 5.59202 99.7825 5.64002 99.8535 5.68802C99.8635 5.69502 99.8755 5.70303 99.8855 5.71003C99.9655 5.76403 100.042 5.81802 100.118 5.87102C100.14 5.88602 100.162 5.90103 100.184 5.91703C100.241 5.95703 100.296 5.99602 100.35 6.03502C100.371 6.05002 100.391 6.06502 100.411 6.08002C100.48 6.13002 100.549 6.18002 100.615 6.22902C100.626 6.23702 100.637 6.24502 100.648 6.25402C100.679 6.27702 100.709 6.30002 100.739 6.32302C100.742 6.32502 100.745 6.32801 100.748 6.33101C100.769 6.34601 100.789 6.36202 100.809 6.37702C100.827 6.39102 100.846 6.40503 100.864 6.41903C101.387 6.82103 101.755 7.14702 101.95 7.32602C101.948 7.32502 101.946 7.32502 101.944 7.32402C101.949 7.32902 101.953 7.33202 101.958 7.33702C101.965 7.34402 101.972 7.35001 101.979 7.35701C101.996 7.37201 102.011 7.38702 102.024 7.39902C102.027 7.40202 102.031 7.40602 102.034 7.40902C102.05 7.42502 102.064 7.43702 102.075 7.44802C102.078 7.45102 102.081 7.45301 102.083 7.45601C102.091 7.46301 102.097 7.46902 102.101 7.47402C102.104 7.47702 102.107 7.48001 102.107 7.48001C102.111 7.48401 102.113 7.48603 102.113 7.48603C102.113 7.48603 102.166 7.54102 102.516 7.62902V7.63002C102.742 7.68702 103.094 7.75702 103.637 7.83602L103.634 7.83503C104.237 7.92203 105.078 8.01902 106.252 8.11602C106.257 8.11602 106.263 8.11702 106.269 8.11702C106.329 8.12202 106.39 8.12702 106.452 8.13202C106.474 8.13402 106.496 8.13503 106.517 8.13703C106.566 8.14103 106.615 8.14502 106.665 8.14902C106.704 8.15202 106.744 8.15502 106.783 8.15802C106.82 8.16102 106.856 8.16402 106.894 8.16602C107.728 8.22902 108.707 8.29202 109.855 8.35302C109.858 8.35302 109.859 8.35302 109.862 8.35302C109.977 8.35902 110.096 8.36502 110.215 8.37102C117.863 8.75702 116.174 15.583 116.174 15.583C115.013 19.587 103.138 25.683 84.1155 30.043C80.9895 30.759 77.1005 31.437 72.7625 32.073C72.5165 32.719 72.1815 33.42 71.7755 34.159C72.5095 34.611 73.2205 36.496 73.4745 38.811C73.7645 41.528 73.3125 43.805 72.4545 43.9C72.4545 43.9 67.6225 44.92 63.1565 45.02C60.4255 47.657 57.7615 49.602 56.0765 49.834C52.5175 50.324 52.7445 40.558 53.0915 34.457C52.5515 34.513 52.0105 34.568 51.4705 34.623V34.622C38.0975 35.979 24.8365 37.005 17.7295 37.643V37.645C16.0895 37.791 14.7795 37.919 13.8695 38.023C10.6585 41.773 6.20151 45.262 4.02251 44.869C1.62451 44.436 3.7685 40.07 5.7145 36.754C5.6765 36.736 5.6375 36.717 5.5995 36.698C5.5715 36.684 5.5435 36.671 5.5165 36.657C5.4675 36.633 5.41951 36.609 5.37051 36.584C5.34251 36.57 5.31551 36.556 5.28751 36.542C5.24051 36.518 5.19351 36.494 5.14751 36.469C5.13351 36.462 5.11951 36.455 5.10551 36.447C2.65551 35.156 0.770499 33.459 0.522499 32.34C0.518499 32.322 0.516511 32.304 0.515511 32.285C0.515511 32.277 0.515502 32.268 0.516502 32.26C0.516502 32.25 0.516509 32.239 0.517509 32.229C0.518509 32.219 0.520499 32.208 0.522499 32.198C0.524499 32.189 0.525511 32.18 0.528511 32.171C0.531511 32.159 0.535497 32.148 0.539497 32.136C0.542497 32.128 0.5445 32.12 0.5485 32.112C0.5535 32.099 0.558507 32.087 0.564507 32.074C0.568507 32.066 0.571508 32.059 0.575508 32.051C0.582508 32.037 0.589503 32.024 0.598503 32.01C0.602503 32.003 0.607504 31.996 0.611504 31.988C0.620504 31.974 0.629503 31.959 0.639503 31.945C0.644503 31.938 0.65051 31.93 0.65551 31.923C0.66651 31.908 0.677507 31.894 0.689507 31.879C0.696507 31.871 0.70451 31.862 0.71151 31.853C0.72351 31.84 0.734498 31.826 0.746498 31.812C1.2155 31.297 2.3655 30.651 3.9075 29.947C4.2485 29.203 4.9315 28.35 5.2975 27.633C5.3635 27.504 5.3875 27.318 5.3765 27.084C5.3725 26.999 5.3635 26.907 5.3505 26.809C5.2585 26.134 4.9535 25.174 4.5305 24.074C4.5045 24.007 4.4785 23.939 4.4515 23.871C4.2065 23.245 3.9265 22.579 3.6275 21.896C2.4725 19.262 1.0405 16.391 0.287498 14.741C-0.757501 12.448 1.2345 10.96 3.1305 10.06Z" fill="#C9CACC"/>
<path d="M73.9297 41.0925L73.6817 41.6875C73.6817 41.6875 65.5127 43.4125 60.6017 42.5975C55.6957 41.7865 71.4207 30.6495 72.6167 31.8445C73.8047 33.0375 73.9297 41.0925 73.9297 41.0925Z" fill="#BABBBB"/>
<path d="M74.7015 36.5979C74.9915 39.3149 74.5385 41.5919 73.6815 41.6879C72.8265 41.7819 71.8925 39.6509 71.5965 36.9339C71.3045 34.2149 71.7565 31.9349 72.6165 31.8449C73.4745 31.7499 74.4035 33.8779 74.7015 36.5979Z" fill="#1B1D24"/>
<path d="M74.1422 36.6582C74.3822 38.8842 74.0082 40.7542 73.3072 40.8302C72.6042 40.9042 71.8362 39.1592 71.5962 36.9342C71.3532 34.7042 71.7282 32.8352 72.4342 32.7612C73.1352 32.6842 73.9012 34.4282 74.1422 36.6582Z" fill="#3D424F"/>
<path d="M69.5745 38.3977C70.9945 36.5857 72.7885 34.5607 73.3555 32.2727C73.1105 31.9737 72.8605 31.8166 72.6175 31.8446C71.4215 30.6486 55.6965 41.7856 60.6025 42.5976C62.1645 42.8586 64.0545 42.8546 65.9065 42.7416C67.1235 41.2906 68.4065 39.8917 69.5745 38.3977Z" fill="#666665"/>
<path d="M72.7031 6.1034C72.7031 6.1034 50.1511 1.7404 44.9251 3.9824C39.7011 6.2214 51.8971 15.0454 53.0861 15.8234C54.2711 16.6064 72.7031 6.1034 72.7031 6.1034Z" fill="#E8E8E8"/>
<path d="M67.0101 5.1084C64.2051 6.0144 61.3321 6.70839 58.5121 7.53239C55.8891 8.30039 53.2761 9.1194 50.6991 10.0294C49.6001 10.4184 48.5321 10.8294 47.4701 11.2974C49.8511 13.5414 52.5521 15.4774 53.0851 15.8234C54.2711 16.6064 72.7031 6.10339 72.7031 6.10339C72.7031 6.10339 70.3591 5.6474 67.0101 5.1084Z" fill="#E8E8E8"/>
<path d="M117.4 13.3703C117.4 13.3703 119.089 6.54432 111.441 6.15832C103.793 5.77032 103.339 5.27131 103.339 5.27131C103.339 5.27131 96.6591 -1.47468 86.9101 0.296318C77.1631 2.06632 24.0641 21.0693 24.0641 21.0693C24.0641 21.0693 1.26006 27.9273 1.75106 30.1283C2.24106 32.3293 9.06306 36.7753 14.0741 35.9453C19.0791 35.1143 66.3221 32.1883 85.3441 27.8293C104.364 23.4693 116.239 17.3733 117.4 13.3703Z" fill="#E8E8E8"/>
<path d="M102.257 4.76826C102.559 4.89326 102.861 5.00727 103.174 5.10927C102.839 4.80127 101.997 4.06326 100.724 3.23926C101.111 3.88226 101.501 4.45526 102.257 4.76826Z" fill="#E8E8E8"/>
<path d="M111.442 6.15714C107.984 5.98214 105.998 5.78314 104.861 5.61914C105.135 5.69514 105.408 5.77013 105.682 5.84013C108.044 6.46913 110.846 7.00814 112.833 8.51814C113.789 9.24514 114.479 10.1961 114.222 11.4371C113.968 12.6571 112.892 13.6791 111.966 14.4301C110.738 15.4251 109.384 16.2581 107.995 17.0181C103.882 19.2641 99.5117 21.0441 95.0647 22.5141C89.2357 24.4441 83.2627 25.8981 77.2567 27.1391C70.7777 28.4811 64.2637 29.6911 57.7247 30.6991C50.9087 31.7471 44.0857 32.4841 37.2177 33.1011C33.8677 33.4051 30.4907 33.6681 27.1647 34.1681C24.2367 34.6041 21.2937 35.2761 18.3167 34.9961C18.1587 34.9821 18.0737 34.7851 18.1697 34.6581C18.4137 34.3301 18.5487 33.9761 18.7137 33.6181C14.8827 33.3121 3.44673 33.7971 2.77073 28.9741C2.05973 29.4261 1.67873 29.8221 1.74773 30.1281C2.23773 32.3291 9.05973 36.7751 14.0707 35.9451C19.0757 35.1141 66.3187 32.1881 85.3407 27.8291C104.363 23.4691 116.238 17.3731 117.399 13.3691C117.401 13.3701 119.09 6.54414 111.442 6.15714Z" fill="#E8E8E8"/>
<path opacity="0.5" d="M3.85682 29.5462C4.49282 30.6662 6.53781 29.9672 7.49681 29.7652C10.1178 29.2142 19.9388 25.9432 22.1498 24.6542C23.1938 24.0492 24.8118 23.3302 25.5648 22.3342C26.0098 21.7452 25.4948 21.1942 24.9878 20.7412C24.3838 20.9562 24.0628 21.0702 24.0628 21.0702C24.0628 21.0702 9.45181 25.4642 3.87281 28.3472C3.73781 28.7932 3.67782 29.2322 3.85682 29.5462Z" fill="#B5B5B5"/>
<path opacity="0.5" d="M17.3633 29.7078C16.1913 29.5968 15.0203 29.7158 13.8523 29.8138C12.7743 29.9028 11.6453 29.8098 10.5823 30.0488C8.52334 30.5058 7.33234 32.4288 6.33134 34.2358C8.70334 35.4848 11.6053 36.3568 14.0713 35.9458C14.8223 35.8248 16.5303 35.6498 18.9543 35.4328C19.5103 32.8398 19.6643 29.9288 17.3633 29.7078Z" fill="#B5B5B5"/>
<path opacity="0.5" d="M74.5856 25.321C73.2776 24.483 71.5916 24.359 70.0716 24.288C68.3786 24.206 66.6816 24.266 65.0016 24.487C63.3156 24.71 61.6826 25.093 60.0266 25.45C58.8036 25.717 57.4686 25.869 56.3366 26.433C54.1576 27.519 53.3636 30.06 52.6966 32.41C61.2406 31.544 69.8326 30.537 76.8906 29.416C76.5426 27.765 75.9136 26.169 74.5856 25.321Z" fill="#B5B5B5"/>
<path d="M64.7693 23.7553C64.7693 23.7553 54.7573 24.3563 54.5473 28.5103C54.3373 32.6663 52.8333 48.2373 57.3043 47.6223C61.7713 47.0073 73.1073 34.3703 74.3563 28.6663C75.6073 22.9603 68.9233 23.1483 64.7693 23.7553Z" fill="#E8E8E8"/>
<path d="M74.3563 28.6657C73.1063 34.3697 61.7713 47.0067 57.3043 47.6217C52.8333 48.2377 54.3373 32.6657 54.5473 28.5097C54.7573 24.3557 64.7693 23.7547 64.7693 23.7547C68.9233 23.1487 75.6073 22.9607 74.3563 28.6657ZM68.1753 24.9237C66.5763 24.2697 64.4893 24.4187 62.8003 24.5337C60.8073 24.6677 58.6823 25.0577 56.9403 26.0847C56.7693 26.1847 55.9443 27.9647 55.7333 29.0337C55.1523 32.0217 54.8253 35.0817 54.8213 38.1227C54.8233 39.7137 54.6163 42.1687 56.0243 43.2827C56.8553 43.9417 57.9853 43.3807 58.7353 42.8897C61.4233 41.1297 63.4183 37.9777 65.1183 35.3177C66.2833 33.4937 67.3873 31.6067 68.2733 29.6297C68.8903 28.2497 70.1503 25.7317 68.1753 24.9237Z" fill="#E8E8E8"/>
<path d="M23.9969 23.2205C23.9969 23.2205 26.8369 22.1125 25.2139 21.1965C23.5889 20.2775 9.12189 7.2705 9.12189 7.2705C9.12189 7.2705 8.26389 6.3695 6.51689 6.9865C4.76689 7.6005 0.0108888 9.23149 1.51489 12.5305C3.02089 15.8305 7.24689 24.0165 6.52489 25.4225C5.80789 26.8265 3.87089 28.7575 5.68089 29.3585C7.48689 29.9585 20.6789 25.4575 23.9969 23.2205Z" fill="#E8E8E8"/>
<path d="M14.7323 17.7031C15.9443 17.0021 17.2323 16.3021 18.5703 15.6591C16.0403 13.4431 13.3333 11.0371 11.4663 9.37207C9.63432 11.6431 8.09632 14.2241 7.13232 16.9891C6.61632 18.4641 6.10031 20.0411 5.67731 21.6591C6.20831 23.0051 6.57131 24.1631 6.60231 24.8731C8.67731 21.8941 11.6673 19.4741 14.7323 17.7031Z" fill="#B02C10"/>
<path d="M25.2139 21.1955C23.5889 20.2765 9.12187 7.26952 9.12187 7.26952C9.12187 7.26952 8.26386 6.36852 6.51686 6.98552C5.98486 7.17152 5.17887 7.45153 4.34787 7.84353C5.27387 7.76953 6.18687 7.92352 7.00087 8.49552C9.14587 9.98852 10.7529 12.2855 12.1369 14.4605C12.8879 15.6415 13.5779 16.8595 14.3399 18.0385C14.8819 18.8895 15.5679 19.7525 15.9179 20.7185C16.6639 22.7735 15.4339 24.1305 13.8249 25.2945C12.1879 26.4785 10.1709 27.5965 8.12786 27.8545C7.60586 27.9225 6.99886 27.9585 6.67286 27.4715C6.43586 27.1185 6.58586 26.5385 6.86386 26.2535C7.04686 26.0685 7.25587 25.9095 7.44387 25.7245C8.09687 25.0745 7.68887 24.4965 7.45487 23.8875C7.22987 23.3055 6.96586 22.7415 6.64486 22.2025C6.11486 21.3155 5.49887 20.4885 4.85587 19.6855C6.00987 22.3205 6.88587 24.7205 6.52687 25.4225C5.80987 26.8265 3.87287 28.7575 5.68287 29.3585C7.48887 29.9595 20.6809 25.4575 23.9989 23.2205C23.9969 23.2205 26.8369 22.1115 25.2139 21.1955Z" fill="#E8E8E8"/>
<path d="M18.2054 31.25C18.2054 31.25 19.8204 28.911 12.5884 29.601C12.5884 29.601 10.3064 29.104 8.45144 32.071C6.59244 35.04 2.16544 42.1 5.24944 42.657C8.33444 43.214 15.9914 35.982 18.2054 31.25Z" fill="#E8E8E8"/>
<path d="M18.2057 31.25C15.9927 35.982 8.33466 43.215 5.24866 42.657C2.16466 42.1 6.59166 35.04 8.45066 32.071C10.3057 29.104 12.5877 29.601 12.5877 29.601C19.8197 28.911 18.2057 31.25 18.2057 31.25ZM14.2937 30.915C13.5837 30.08 12.2897 29.998 11.2347 30.347C11.2247 30.353 11.2097 30.349 11.1977 30.359C11.1887 30.36 11.1777 30.366 11.1777 30.366C10.8117 30.493 10.4817 30.673 10.2177 30.888C10.1887 30.91 10.1707 30.935 10.1557 30.962C9.16266 31.691 8.44067 32.706 7.82767 33.814C6.74867 35.768 5.68266 37.716 4.84566 39.788C4.79266 39.925 4.88967 40.05 5.02067 40.076C6.10667 40.304 7.31766 38.958 8.01666 38.324C9.39066 37.078 10.8577 35.923 12.1447 34.585C12.6317 34.072 15.0957 31.864 14.2937 30.915Z" fill="#E8E8E8"/>
<path d="M90.2041 4.86433C85.0231 7.37133 80.8111 9.04134 82.3011 12.7873C83.7981 16.5403 84.8051 18.7013 89.8821 17.1323C94.9621 15.5663 103.962 9.19333 103.74 5.41333C103.39 5.32633 103.337 5.27034 103.337 5.27034C103.337 5.27034 100.16 2.06134 94.9901 0.652344C94.6501 1.59734 93.5741 3.23333 90.2041 4.86433Z" fill="#05060A"/>
<path d="M90.6401 4.99933C85.7011 7.39033 81.6931 8.98031 83.1131 12.5533C84.5371 16.1243 85.4981 18.1863 90.3371 16.6893C95.1771 15.1983 103.752 9.12732 103.545 5.52332C103.205 5.44032 103.156 5.38733 103.156 5.38733C103.156 5.38733 100.128 2.32933 95.2061 0.986328C94.8791 1.88533 93.8531 3.44333 90.6401 4.99933Z" fill="#3D424F"/>
<path d="M99.3112 11.5094C101.797 9.45535 103.642 7.21535 103.545 5.52235C103.205 5.43935 103.156 5.38635 103.156 5.38635C103.156 5.38635 100.128 2.32835 95.2062 0.985352C94.9462 1.69835 94.2512 2.82135 92.3772 4.03235C94.6762 6.53835 96.9642 9.05235 99.3112 11.5094Z" fill="#3D424F"/>
<path d="M78.3668 16.1996C78.2208 17.5206 77.0378 18.4706 75.7148 18.3266C74.3938 18.1826 73.4448 16.9966 73.5888 15.6776C73.7298 14.3576 74.9178 13.4036 76.2388 13.5476C77.5618 13.6926 78.5088 14.8806 78.3668 16.1996Z" fill="#05060A"/>
<path d="M77.8573 16.1598C77.7443 17.1998 76.8113 17.9518 75.7683 17.8378C74.7323 17.7248 73.9793 16.7898 74.0943 15.7498C74.2053 14.7098 75.1433 13.9588 76.1843 14.0718C77.2243 14.1868 77.9733 15.1238 77.8573 16.1598Z" fill="#A4CEE3"/>
<path d="M60.3022 20.046C60.1552 21.365 58.9732 22.32 57.6492 22.176C56.3342 22.031 55.3812 20.843 55.5232 19.526C55.6702 18.206 56.8562 17.253 58.1732 17.396C59.4952 17.543 60.4452 18.729 60.3022 20.046Z" fill="#05060A"/>
<path d="M59.7979 20.0084C59.6829 21.0524 58.7489 21.8034 57.7049 21.6884C56.6659 21.5744 55.9139 20.6374 56.0279 19.5974C56.1409 18.5584 57.0789 17.8064 58.1189 17.9194C59.1599 18.0344 59.9079 18.9704 59.7979 20.0084Z" fill="#A4CEE3"/>
<path d="M51.257 22.108C51.112 23.428 49.928 24.382 48.607 24.235C47.289 24.092 46.337 22.903 46.479 21.585C46.626 20.265 47.813 19.312 49.129 19.457C50.452 19.601 51.401 20.788 51.257 22.108Z" fill="#05060A"/>
<path d="M50.7506 22.0732C50.6356 23.1122 49.7016 23.8612 48.6596 23.7472C47.6226 23.6342 46.8706 22.6982 46.9826 21.6592C47.0976 20.6182 48.0336 19.8672 49.0716 19.9812C50.1146 20.0952 50.8626 21.0312 50.7506 22.0732Z" fill="#A4CEE3"/>
<path d="M42.1884 24.3877C42.0464 25.7097 40.8584 26.6617 39.5384 26.5177C38.2174 26.3727 37.2634 25.1867 37.4104 23.8647C37.5514 22.5457 38.7414 21.5947 40.0614 21.7367C41.3804 21.8827 42.3344 23.0677 42.1884 24.3877Z" fill="#05060A"/>
<path d="M41.678 24.3504C41.564 25.3884 40.632 26.1404 39.593 26.0264C38.552 25.9114 37.8 24.9794 37.912 23.9394C38.025 22.8994 38.962 22.1474 40.005 22.2614C41.044 22.3744 41.792 23.3114 41.678 24.3504Z" fill="#A4CEE3"/>
<path d="M32.0047 26.4356C31.8727 27.6386 30.7927 28.5066 29.5867 28.3746C28.3837 28.2426 27.5177 27.1626 27.6487 25.9586C27.7807 24.7566 28.8617 23.8906 30.0657 24.0196C31.2697 24.1516 32.1347 25.2326 32.0047 26.4356Z" fill="#05060A"/>
<path d="M31.5425 26.4015C31.4415 27.3485 30.5845 28.0335 29.6365 27.9295C28.6895 27.8235 28.0075 26.9735 28.1115 26.0265C28.2135 25.0805 29.0655 24.3955 30.0115 24.4985C30.9605 24.5995 31.6455 25.4545 31.5425 26.4015Z" fill="#A4CEE3"/>
<path d="M69.3317 18.1586C69.1847 19.4776 68.0017 20.4326 66.6817 20.2856C65.3607 20.1426 64.4067 18.9526 64.5517 17.6346C64.6977 16.3146 65.8827 15.3626 67.2047 15.5066C68.5217 15.6516 69.4737 16.8396 69.3317 18.1586Z" fill="#05060A"/>
<path d="M68.8204 18.122C68.7074 19.159 67.7754 19.912 66.7334 19.796C65.6934 19.683 64.9404 18.747 65.0534 17.709C65.1654 16.667 66.1084 15.917 67.1464 16.031C68.1874 16.146 68.9354 17.079 68.8204 18.122Z" fill="#A4CEE3"/>
<path d="M3.18461 9.0253C3.18461 9.0253 0.987604 10.3673 2.7176 13.2833C4.4506 16.1993 8.47761 24.2583 8.47761 24.2583C8.47761 24.2583 9.22461 25.4393 9.20061 24.3363C9.17261 23.2343 3.52661 13.2883 3.42761 12.1573C3.33361 11.0243 3.78061 9.1623 4.03061 9.1203C4.27561 9.0773 3.70261 8.5613 3.18461 9.0253Z" fill="#E8E8E8"/>
<path d="M94.0098 0.856203C94.0098 0.856203 88.6798 -0.0508026 83.8778 1.3942C79.0738 2.8412 27.7218 20.3682 27.7218 20.3682C27.7218 20.3682 25.9748 20.9412 27.6488 21.0312C29.3198 21.1212 79.1548 4.3122 79.1548 4.3122C79.1548 4.3122 88.5758 1.68321 91.3748 3.52721C91.3748 3.52721 93.4068 2.3702 94.0098 0.856203Z" fill="#E8E8E8"/>
<path d="M87.3435 6.60547C86.8625 6.84947 86.4045 7.09248 85.9825 7.33948C87.3655 10.5035 89.0195 13.5435 90.6555 16.5855C91.3945 16.3375 92.2135 15.9875 93.0645 15.5655C91.1945 12.5575 89.2285 9.60547 87.3435 6.60547Z" fill="#3D424F"/>
</svg>
