<svg width="32" height="32" viewBox="0 0 32 32" fill="none" xmlns="http://www.w3.org/2000/svg">
<rect width="32" height="32" fill="#28D366"/>
<path d="M16.0001 7.81335C17.4336 7.81335 18.6116 8.29801 19.4123 8.76219C20.4962 9.39011 20.9121 10.5714 20.9121 11.6259V13.0258C21.6547 13.4925 22.3718 13.9986 23.0603 14.542C23.2236 14.6795 23.3267 14.8753 23.3476 15.0878C23.3686 15.3002 23.3058 15.5124 23.1725 15.6792C23.0393 15.846 22.8462 15.9541 22.6343 15.9806C22.4225 16.007 22.2087 15.9496 22.0386 15.8207C21.6722 15.5323 21.2965 15.256 20.9121 14.9922V20.5731C20.9121 21.5315 20.5314 22.4506 19.8537 23.1283C19.176 23.806 18.2569 24.1867 17.2985 24.1867H14.7017C13.7433 24.1867 12.8242 23.806 12.1465 23.1283C11.4688 22.4506 11.0881 21.5315 11.0881 20.5731V14.9922C10.7058 15.2575 10.3267 15.5301 9.96241 15.8207C9.79284 15.9564 9.5763 16.0192 9.36044 15.9953C9.14458 15.9713 8.94707 15.8626 8.81137 15.693C8.67566 15.5234 8.61288 15.3069 8.63683 15.091C8.66078 14.8752 8.7695 14.6777 8.93908 14.542C9.62784 13.9988 10.3452 13.493 11.0881 13.0266V11.6259C11.0881 10.5706 11.504 9.39011 12.5879 8.76219C13.3885 8.29801 14.5674 7.81335 16.0001 7.81335ZM19.2747 15.5203L19.1757 15.6202L19.0643 15.738C18.7125 16.1399 18.5013 16.6454 18.4626 17.1781L18.4561 17.3566V20.0934L18.452 20.2162C18.4227 20.606 18.2549 20.9725 17.9789 21.2493C17.7029 21.5262 17.337 21.6952 16.9473 21.7258L16.8187 21.7307H15.1814L15.0586 21.7266C14.6688 21.6973 14.3023 21.5295 14.0254 21.2535C13.7486 20.9775 13.5796 20.6116 13.549 20.2219L13.5441 20.0934V17.3566L13.5383 17.1945C13.5033 16.6615 13.2955 16.1545 12.9465 15.7503L12.8245 15.6193L12.7254 15.5211V20.5723L12.732 20.7295C12.7692 21.198 12.9722 21.6379 13.3046 21.9702C13.6369 22.3025 14.0768 22.5055 14.5453 22.5428L14.7017 22.5494H17.2985L17.4548 22.5428C17.9234 22.5055 18.3633 22.3025 18.6956 21.9702C19.0279 21.6379 19.2309 21.198 19.2682 20.7295L19.2747 20.5731V15.5203ZM16.0001 12.7254C15.5465 12.7254 14.9489 12.8825 14.258 13.1732C14.0249 13.272 13.7905 13.3806 13.5547 13.499L13.2027 13.6816L13.9829 14.4617C14.6974 15.1765 15.1223 16.1303 15.1757 17.1396L15.1814 17.3566V20.0934H16.8187V17.3566C16.8186 16.3457 17.1924 15.3706 17.8683 14.6189L18.0173 14.4617L18.7975 13.6816C18.4537 13.4954 18.1013 13.3257 17.7414 13.1732C17.0521 12.8825 16.4544 12.7254 16.0001 12.7254ZM16.0001 9.45069C14.9383 9.45069 14.0435 9.8109 13.409 10.1793C12.9898 10.4208 12.7254 10.9431 12.7254 11.6251V12.0835C13.021 11.9321 13.3222 11.7896 13.6227 11.6627C14.3906 11.3402 15.2256 11.088 16.0001 11.088C16.7745 11.088 17.6096 11.3402 18.3775 11.6635C18.6779 11.7904 18.9792 11.9329 19.2747 12.0835V11.6251C19.2747 10.9439 19.0103 10.4216 18.5912 10.1785C17.9567 9.8109 17.0619 9.45069 16.0001 9.45069Z" fill="black"/>
</svg>
