<svg width="28" height="28" viewBox="0 0 28 28" fill="none" xmlns="http://www.w3.org/2000/svg">
<g clip-path="url(#clip0_86_55)">
<path d="M13.9999 2.33289C16.0428 2.33289 17.7217 3.02359 18.8628 3.68512C20.4075 4.58 21.0002 6.26358 21.0002 7.76632V9.76141C22.0586 10.4265 23.0805 11.1478 24.0617 11.9222C24.2944 12.1181 24.4414 12.3973 24.4713 12.7C24.5012 13.0028 24.4116 13.3052 24.2217 13.5429C24.0318 13.7806 23.7566 13.9347 23.4547 13.9724C23.1528 14.0101 22.8481 13.9283 22.6056 13.7446C22.0836 13.3336 21.5481 12.9398 21.0002 12.5639V20.5174C21.0002 21.8833 20.4576 23.1932 19.4918 24.159C18.526 25.1248 17.2161 25.6674 15.8503 25.6674H12.1495C10.7836 25.6674 9.47371 25.1248 8.50792 24.159C7.54212 23.1932 6.99954 21.8833 6.99954 20.5174V12.5639C6.45468 12.9419 5.91449 13.3304 5.39529 13.7446C5.15363 13.938 4.84503 14.0275 4.53739 13.9933C4.22976 13.9592 3.94828 13.8043 3.75488 13.5626C3.56149 13.3209 3.47201 13.0123 3.50615 12.7047C3.54028 12.3971 3.69522 12.1156 3.93689 11.9222C4.91848 11.1481 5.94082 10.4272 6.99954 9.76258V7.76632C6.99954 6.26241 7.59223 4.58 9.13698 3.68512C10.278 3.02359 11.9581 2.33289 13.9999 2.33289ZM18.6668 13.3164L18.5256 13.4588L18.3669 13.6268C17.8655 14.1994 17.5645 14.9199 17.5094 15.679L17.5 15.9334V19.8337L17.4942 20.0087C17.4525 20.5643 17.2133 21.0866 16.82 21.4812C16.4267 21.8758 15.9052 22.1166 15.3498 22.1602L15.1666 22.1672H12.8332L12.6581 22.1614C12.1026 22.1196 11.5803 21.8805 11.1857 21.4871C10.7911 21.0938 10.5503 20.5723 10.5067 20.0169L10.4997 19.8337V15.9334L10.4915 15.7024C10.4416 14.9429 10.1455 14.2203 9.648 13.6443L9.47416 13.4576L9.33299 13.3176V20.5163L9.34232 20.7403C9.39543 21.408 9.68475 22.0349 10.1584 22.5085C10.632 22.9821 11.2589 23.2715 11.9266 23.3246L12.1495 23.3339H15.8503L16.0731 23.3246C16.7408 23.2715 17.3678 22.9821 17.8414 22.5085C18.315 22.0349 18.6043 21.408 18.6574 20.7403L18.6668 20.5174V13.3164ZM13.9999 9.33323C13.3535 9.33323 12.5018 9.55724 11.5171 9.97142C11.185 10.1122 10.8509 10.267 10.5149 10.4358L10.0132 10.696L11.1251 11.8078C12.1434 12.8265 12.7489 14.1858 12.825 15.6242L12.8332 15.9334V19.8337H15.1666V15.9334C15.1664 14.4928 15.6991 13.1031 16.6623 12.0319L16.8747 11.8078L17.9866 10.696C17.4967 10.4306 16.9944 10.1888 16.4815 9.97142C15.4991 9.55724 14.6474 9.33323 13.9999 9.33323ZM13.9999 4.66633C12.4866 4.66633 11.2114 5.17969 10.3072 5.70472C9.70984 6.0489 9.33299 6.79327 9.33299 7.76515V8.41852C9.75417 8.20267 10.1835 7.99966 10.6117 7.81882C11.7061 7.35913 12.8962 6.99978 13.9999 6.99978C15.1036 6.99978 16.2937 7.35913 17.388 7.81999C17.8162 8.00083 18.2456 8.20384 18.6668 8.41852V7.76515C18.6668 6.79444 18.2899 6.05007 17.6926 5.70355C16.7883 5.17969 15.5131 4.66633 13.9999 4.66633Z" fill="black"/>
</g>
<defs>
<clipPath id="clip0_86_55">
<rect width="28" height="28" fill="white"/>
</clipPath>
</defs>
</svg>
