<svg width="372" height="199" viewBox="0 0 372 199" fill="none" xmlns="http://www.w3.org/2000/svg">
<path fill-rule="evenodd" clip-rule="evenodd" d="M286.867 0.605323C270.736 2.42032 255.235 7.94232 242.151 16.5333C232.897 22.6103 219 35.5793 219 38.1383C219 38.9583 220.506 42.6553 222.347 46.3543C224.188 50.0533 228.091 58.4193 231.02 64.9453L236.345 76.8113L237.937 72.9453C241.47 64.3643 244.63 59.7303 251.89 52.4853C264.673 39.7283 279.848 33.5793 298.55 33.5793C315.413 33.5793 328.354 37.9513 341.024 47.9293L346.5 52.2423L358.75 40.7333C365.488 34.4033 371 28.8923 371 28.4873C371 27.2513 358.922 18.1413 351.443 13.7363C333.634 3.24832 308.604 -1.84168 286.867 0.605323ZM86.213 7.57932C84.603 11.1543 77.083 27.5793 69.502 44.0793C61.92 60.5793 50.43 85.7793 43.967 100.079C37.505 114.379 24.968 141.994 16.109 161.446C7.249 180.897 0 196.995 0 197.217C0 197.44 8.578 197.5 19.063 197.351L38.125 197.079L57.918 154.079C68.805 130.429 80.273 105.679 83.404 99.0793L89.097 87.0803L90.925 91.0793C91.93 93.2793 101.847 114.879 112.962 139.079C124.078 163.279 134.596 186.335 136.336 190.316C138.076 194.296 139.746 197.558 140.046 197.566C140.346 197.573 144.949 188.142 150.275 176.607L159.958 155.635L152.611 139.357C148.57 130.404 138.626 108.679 130.513 91.0793C122.4 73.4793 110.15 46.7043 103.291 31.5793C96.432 16.4543 90.442 3.40432 89.98 2.57932C89.359 1.46932 88.379 2.77032 86.213 7.57932ZM172.992 39.3083C163.441 60.0823 153.317 82.2163 150.494 88.4953L145.362 99.9113L151.994 114.495C155.642 122.516 159.936 132.116 161.536 135.829C163.136 139.541 164.701 142.579 165.013 142.579C165.326 142.579 171.153 130.429 177.963 115.579C184.773 100.729 190.624 88.5793 190.964 88.5793C191.305 88.5793 192.857 91.1673 194.413 94.3293C197.446 100.493 236.357 184.912 239.814 192.829L241.888 197.579H260.944C271.425 197.579 280 197.406 280 197.195C280 196.252 240.659 109.507 216 56.0793C210.416 43.9793 202.689 27.1043 198.83 18.5793C194.971 10.0543 191.486 2.73232 191.085 2.30832C190.685 1.88332 182.543 18.5333 172.992 39.3083ZM341.5 150.206C336.136 154.951 327.026 159.921 318.5 162.753C308.944 165.928 289.554 165.98 280.687 162.855C276.026 161.212 274.984 161.095 275.433 162.264C275.74 163.066 279.481 171.617 283.746 181.266L291.5 198.811L304 198.325C319.092 197.738 329.772 195.196 342.623 189.132C352.733 184.36 361.326 178.819 367.714 172.95L371.929 169.079L359.551 158.108C352.744 152.074 346.797 147.031 346.337 146.902C345.877 146.773 343.7 148.26 341.5 150.206Z" fill="#D9D9D9"/>
</svg>
